<svg width="25" height="23" viewBox="0 0 25 23" fill="none" xmlns="http://www.w3.org/2000/svg">
<path d="M6.85327 11.417C6.79994 12.3397 7.51327 13.1296 8.43994 13.1827C8.47327 13.1827 8.50661 13.1827 8.53994 13.1827C9.47327 13.1827 10.2266 12.4326 10.2199 11.5033C10.2199 10.574 9.46661 9.82397 8.53327 9.83061C7.63994 9.83061 6.89994 10.5276 6.85327 11.417Z" fill="#0033AD"/>
<path d="M0.573282 10.9856C0.273282 10.9657 0.0132822 11.198 -5.1171e-05 11.4967C-0.0133845 11.7954 0.213282 12.0542 0.513282 12.0675C0.813282 12.0874 1.06662 11.8551 1.08662 11.5564C1.10662 11.2577 0.873282 11.0055 0.573282 10.9856Z" fill="#0033AD"/>
<path d="M6.74667 1.68606C7.01334 1.55331 7.12 1.22142 6.98667 0.955904C6.85334 0.690392 6.52 0.584187 6.25334 0.716943C5.98667 0.849699 5.88 1.17495 6.01333 1.44046C6.14667 1.71261 6.47333 1.82546 6.74667 1.68606C6.74 1.68606 6.74667 1.68606 6.74667 1.68606Z" fill="#0033AD"/>
<path d="M8.45328 4.65311C8.86662 4.44734 9.03328 3.94287 8.82662 3.53132C8.61995 3.11978 8.11328 2.95383 7.69995 3.1596C7.28661 3.36538 7.11995 3.86985 7.32661 4.28139C7.53328 4.69294 8.03995 4.85888 8.45328 4.65311Z" fill="#0033AD"/>
<path d="M2.70665 6.69091C3.02665 6.89669 3.45331 6.8104 3.66665 6.49178C3.87332 6.17317 3.78665 5.74834 3.46665 5.53593C3.14665 5.33016 2.71998 5.41645 2.50665 5.73507C2.29331 6.05368 2.38665 6.48514 2.70665 6.69091Z" fill="#0033AD"/>
<path d="M3.72658 10.687C3.25992 10.6604 2.86658 11.0122 2.83992 11.4769C2.81325 11.9415 3.16658 12.3331 3.63325 12.3597C4.09992 12.3862 4.49325 12.0344 4.51992 11.5698C4.54658 11.1118 4.19325 10.7135 3.72658 10.687Z" fill="#0033AD"/>
<path d="M2.8 16.3092C2.46 16.4818 2.32 16.8933 2.49334 17.2385C2.66667 17.577 3.08 17.7164 3.42667 17.5438C3.76667 17.3712 3.90667 16.9597 3.73334 16.6145C3.56 16.276 3.14 16.1366 2.8 16.3092Z" fill="#0033AD"/>
<path d="M6.06661 8.95447C6.52661 9.25317 7.13995 9.12705 7.43328 8.66904C7.73328 8.21103 7.60661 7.60036 7.14661 7.30829C6.68661 7.00959 6.07328 7.13571 5.77994 7.59372C5.47994 8.04509 5.60661 8.65577 6.06661 8.95447Z" fill="#0033AD"/>
<path d="M16.4333 4.58671C16.82 4.83895 17.3467 4.73274 17.6 4.34775C17.8533 3.96276 17.7467 3.43837 17.36 3.18613C16.9733 2.9339 16.4467 3.0401 16.1933 3.42509C15.9333 3.81672 16.04 4.33447 16.4333 4.58671Z" fill="#0033AD"/>
<path d="M18.1533 1.63284C18.4067 1.79879 18.74 1.72577 18.9067 1.47354C19.0733 1.2213 19 0.88941 18.7467 0.723465C18.4933 0.557519 18.16 0.630535 17.9933 0.876134C17.8333 1.12837 17.9067 1.4669 18.1533 1.63284Z" fill="#0033AD"/>
<path d="M16.56 9.81737C15.6333 9.76427 14.8333 10.4745 14.7866 11.3972C14.7333 12.3198 15.4466 13.1164 16.3733 13.1628C16.4066 13.1628 16.44 13.1628 16.4666 13.1628C17.3933 13.1628 18.1466 12.4128 18.1466 11.4835C18.1533 10.6006 17.4533 9.86383 16.56 9.81737Z" fill="#0033AD"/>
<path d="M9.00661 8.83493C9.29327 9.39915 9.87327 9.75759 10.5133 9.75759C11.4399 9.75759 12.1933 9.00752 12.1933 8.07823C12.1933 7.81935 12.1333 7.56048 12.0133 7.32152C11.5933 6.4918 10.5799 6.15991 9.75327 6.57809C8.91994 7.0029 8.58661 8.01185 9.00661 8.83493Z" fill="#0033AD"/>
<path d="M22.1999 6.6909C22.5399 6.51832 22.6733 6.10014 22.4999 5.76161C22.3266 5.42308 21.9066 5.29032 21.5666 5.46291C21.2266 5.63549 21.0933 6.04704 21.2599 6.38556C21.4399 6.72409 21.8533 6.86349 22.1999 6.6909Z" fill="#0033AD"/>
<path d="M17.9333 7.22195C17.4466 7.46754 17.2466 8.05831 17.4933 8.54287C17.7399 9.02743 18.3333 9.22656 18.8199 8.98096C19.3066 8.73536 19.5066 8.1446 19.2599 7.66004C19.0133 7.17548 18.4199 6.98299 17.9333 7.22195Z" fill="#0033AD"/>
<path d="M12.4332 1.38067C12.8132 1.40058 13.1399 1.10852 13.1666 0.730164C13.1932 0.351809 12.8932 0.0265562 12.5132 4.95673e-06C12.1332 -0.0199085 11.8066 0.265517 11.7799 0.643872C11.7599 1.02886 12.0532 1.35412 12.4332 1.38067Z" fill="#0033AD"/>
<path d="M12.4266 5.71517C12.9733 5.74836 13.4399 5.33018 13.4666 4.78588C13.4999 4.24158 13.0799 3.77693 12.5333 3.75038C11.9866 3.71719 11.52 4.13537 11.4933 4.67968C11.4666 5.22398 11.88 5.68862 12.4266 5.71517Z" fill="#0033AD"/>
<path d="M7.06663 15.7782C7.5533 15.5326 7.7533 14.9418 7.50663 14.4573C7.25997 13.9727 6.66663 13.7736 6.17997 14.0192C5.6933 14.2648 5.4933 14.8555 5.73997 15.3401C5.98663 15.8246 6.57997 16.0238 7.06663 15.7782Z" fill="#0033AD"/>
<path d="M13.0666 7.15551C12.5599 7.93214 12.7733 8.96763 13.5533 9.47211C14.3333 9.97658 15.3733 9.76417 15.88 8.98755C16.3866 8.21092 16.1733 7.17543 15.3933 6.67095C15.1199 6.49173 14.7999 6.3988 14.4733 6.3988C13.9066 6.3988 13.3799 6.68423 13.0666 7.15551Z" fill="#0033AD"/>
<path d="M15.9933 14.165C15.5733 13.3353 14.5599 13.0034 13.7333 13.4216C12.8999 13.8398 12.5666 14.8487 12.9866 15.6718C13.4066 16.5015 14.4199 16.8334 15.2466 16.4152C16.0733 16.0037 16.4133 15.008 15.9999 14.1783C15.9999 14.1717 15.9999 14.1717 15.9933 14.165Z" fill="#0033AD"/>
<path d="M18.9332 14.0456C18.4732 13.7469 17.8599 13.873 17.5666 14.331C17.2666 14.789 17.3932 15.3997 17.8532 15.6918C18.3132 15.9905 18.9266 15.8644 19.2199 15.4064C19.5199 14.955 19.3932 14.3443 18.9332 14.0456Z" fill="#0033AD"/>
<path d="M22.1599 11.5299C22.1866 11.0652 21.8333 10.6736 21.3666 10.647C20.8999 10.6205 20.5066 10.9723 20.4799 11.4369C20.4533 11.9016 20.8066 12.2932 21.2733 12.3198C21.7333 12.3463 22.1333 11.9879 22.1599 11.5299Z" fill="#0033AD"/>
<path d="M24.4866 10.9325C24.1866 10.9126 23.9266 11.1449 23.9133 11.4436C23.8999 11.7423 24.1266 12.0012 24.4266 12.0144C24.7266 12.0343 24.98 11.802 25 11.5033C25.0133 11.2046 24.7866 10.9524 24.4866 10.9325Z" fill="#0033AD"/>
<path d="M22.2933 16.3091C21.9733 16.1034 21.5466 16.1896 21.3333 16.5083C21.1266 16.8269 21.2133 17.2517 21.5333 17.4641C21.8533 17.6699 22.28 17.5836 22.4933 17.265C22.7066 16.9464 22.6133 16.5149 22.2933 16.3091Z" fill="#0033AD"/>
<path d="M6.83998 21.3671C6.58665 21.2012 6.25331 21.2742 6.08665 21.5198C5.91998 21.772 5.99331 22.1039 6.23998 22.2699C6.49331 22.4358 6.82665 22.3628 6.99331 22.1172C7.16665 21.8716 7.09331 21.5331 6.83998 21.3671Z" fill="#0033AD"/>
<path d="M18.2533 21.3139C17.9867 21.4467 17.88 21.7786 18.0133 22.0441C18.1467 22.3096 18.48 22.4158 18.7467 22.2831C19.0133 22.1503 19.12 21.825 18.9867 21.5595C18.8533 21.2874 18.5267 21.1745 18.2533 21.3139C18.26 21.3139 18.2533 21.3139 18.2533 21.3139Z" fill="#0033AD"/>
<path d="M11.9333 15.8445C12.4399 15.0678 12.2266 14.0323 11.4466 13.5212C10.6666 13.0168 9.62658 13.2292 9.11325 14.0058C8.59992 14.7824 8.81992 15.8179 9.59992 16.329C9.87325 16.5082 10.1933 16.6012 10.5199 16.6012C11.0933 16.6078 11.6199 16.3224 11.9333 15.8445Z" fill="#0033AD"/>
<path d="M8.56665 18.4133C8.17999 18.1611 7.65332 18.2673 7.39998 18.6523C7.14665 19.0373 7.25332 19.5616 7.63998 19.8139C8.02665 20.0661 8.55332 19.9599 8.80665 19.5749C9.06665 19.1899 8.95999 18.6655 8.56665 18.4133Z" fill="#0033AD"/>
<path d="M12.4933 21.6194C12.1133 21.5995 11.7866 21.8915 11.76 22.2699C11.7333 22.6482 12.0333 22.9735 12.4133 23C12.7933 23.0199 13.12 22.7345 13.1466 22.3562C13.1666 21.9712 12.8733 21.6459 12.4933 21.6194Z" fill="#0033AD"/>
<path d="M12.5 17.2848C11.9533 17.2516 11.4867 17.6698 11.46 18.2141C11.4267 18.7584 11.8467 19.223 12.3933 19.2496C12.94 19.2761 13.4066 18.8646 13.4333 18.3203C13.4666 17.7826 13.0467 17.3114 12.5 17.2848Z" fill="#0033AD"/>
<path d="M16.5466 18.3468C16.1333 18.5593 15.9666 19.0637 16.1799 19.4753C16.3933 19.8868 16.8999 20.0528 17.3133 19.8403C17.7266 19.6346 17.8933 19.1301 17.6866 18.7186C17.4733 18.307 16.9666 18.1344 16.5466 18.3468Z" fill="#0033AD"/>
</svg>
