<svg width="24" height="24" viewBox="0 0 24 24" fill="none" xmlns="http://www.w3.org/2000/svg">
<path d="M12 0C5.37288 0 0 5.37288 0 12C0 18.6271 5.37312 24 12 24C18.6269 24 24 18.6286 24 12C24 5.37144 18.6278 0 12 0Z" fill="#53AE94"/>
<path d="M10.519 10.4012V8.61604H6.43683V5.89612H17.5527V8.61604H13.47V10.3997C16.788 10.5521 19.2828 11.2092 19.2828 11.9964C19.2828 12.7836 16.7868 13.4408 13.47 13.5941V19.3121H10.518V13.5936C7.20603 13.4408 4.71627 12.7841 4.71627 11.9976C4.71627 11.2112 7.20603 10.5545 10.518 10.4016L10.519 10.4012ZM10.518 13.1093V13.1079C10.6013 13.1132 11.0292 13.1388 11.982 13.1388C12.7438 13.1388 13.2797 13.1172 13.4686 13.1074V13.1098C16.4 12.98 18.588 12.4695 18.588 11.8587C18.588 11.2479 16.3997 10.7381 13.4686 10.608V12.6012C13.2766 12.6144 12.7275 12.6468 11.9696 12.6468C11.0592 12.6468 10.6016 12.6089 10.5176 12.6012V10.608C7.59195 10.7384 5.40891 11.2493 5.40891 11.858C5.40891 12.4666 7.59291 12.9778 10.5176 13.1081" fill="white"/>
</svg>
